<svg width="197.843" height="240.507" viewBox="0 0 52.346 63.634" xml:space="preserve"
  xmlns="http://www.w3.org/2000/svg">
    <path style="fill:#000;stroke-width:.106031" d="M8.683 72.246c-4.524-.934-6.317-4.744-4.674-9.928.734-2.314.553-1.942 2.18-4.486 1.851-2.898 1.996-3.083 3.22-4.139.61-.525 1.948-1.719 2.975-2.654 1.626-1.48 2.132-1.869 3.933-3.013 1.138-.722 2.617-1.68 3.287-2.126a72.587 72.587 0 0 1 2.993-1.845c1.985-1.157 2.058-1.229 2.996-2.926a88.13 88.13 0 0 1 1.12-1.962c2.3-3.87 4.817-9.142 4.616-9.667-.069-.178.021-.21.8-.29 1.512-.156.334 3.629-2.288 7.352-1.466 2.084-2.932 4.59-2.775 4.748.3.3 9.238-4.87 14.917-8.627 4.433-2.933 11.34-9.1 11.34-10.126 0-.05 1.43-2.53 1.252-4.61-.173-2.008-1.925-3.598-3.694-4.782-10.556-7.057-29.46-2.134-31.977 8.327-.505 2.096-.35 3.441.48 4.157.267.23.596.517.731.637.545.482.115.96-.667.741-3.59-1.005-2.974-7.551 1.064-11.293.062-.058.322-.361.576-.673.491-.603 1.05-1.048 2.593-2.065a29.97 29.97 0 0 0 1.331-.92c1.123-.872 5.528-2.297 8.567-2.772 8.016-1.252 13.563-.272 18.427 3.258 1.586 1.151 1.735 1.3 2.857 2.863 3.452 4.81-3.297 13.164-16.936 20.963a72.33 72.33 0 0 0-2.789 1.678c-1.213.788-3.515 2.139-4.453 2.612-.35.177-1.407.815-2.35 1.42-.942.604-1.929 1.226-2.193 1.383-.58.344-1.698 1.79-2.555 3.303-.629 1.111-.645 1.237-.166 1.237.523 0 .072 1.542-.682 2.332-.195.204-.506.682-.692 1.06-.186.38-.446.833-.58 1.008-.133.175-.345.52-.471.769-.248.486-1.066.642-1.746.332-.478-.217.522-2.904 1.946-5.231.798-1.303 1.548-2.786 1.456-2.878-.138-.138-7.174 4.487-7.978 5.245-.35.33-1.33 1.182-2.176 1.894-6.968 5.857-9.369 12.641-6.057 17.117 1.337 1.807 6.445 1.972 9.745.315.802-.404 1.734-.681 3.778-1.125 1.188-.258 1.806-.446 2.095-.638.612-.405 3.495-1.034 3.643-.795.22.354-2.527 1.85-4.083 2.222-.554.133-1.973.595-3.153 1.026-4.176 1.527-7.45 2.053-9.783 1.572zm26.03-19.783c-4.095-.226-6.453-1.761-6.277-4.086.184-2.433 5.475-6.54 10.754-8.348 2.575-.881 4.968.203 3.68 1.668-.607.69-2.053.718-1.603.03.256-.388.028-.534-.692-.44-1.262.162-1.722.329-5.218 1.892-.904.405-1.964 1.158-2.914 2.07-.326.313-.787.71-1.026.881-.548.394-1.268 2.092-1.336 2.347 0 0 .443 1.036.756 1.386.945 1.06 4.827 1.555 8.966 1.143a763.76 763.76 0 0 0 2.704-.277c2.035-.211 5.642-.215 6.748-.007 1.258.237 4.488.586 5.428.586.773 0 .84.017.947.252.116.254-.553.722-.874.612-.106-.036-.85-.072-7-.34-2.933-.128-2.999-.127-5.408.147-2.219.251-4.346.439-5.885.518-.32.016-1.108 0-1.75-.034z" transform="translate(-3.41 -8.784)"/>
</svg>  