<?xml version="1.0" encoding="UTF-8" standalone="no"?>
<!-- Created with Inkscape (http://www.inkscape.org/) -->

<svg width="161mm" height="231mm" viewBox="0 0 161 231.00001" version="1.1" xmlns="http://www.w3.org/2000/svg"
  xmlns:svg="http://www.w3.org/2000/svg" xmlns:rdf="http://www.w3.org/1999/02/22-rdf-syntax-ns#"
  xmlns:cc="http://creativecommons.org/ns#" xmlns:dc="http://purl.org/dc/elements/1.1/">

  <title id="title284">Divyansh Choudhary - Initials as logo</title>
  <g id="layer1" transform="translate(-24.188518,-36.136994)">
    <path style="fill:#001C12;stroke-width:0.197105"
      d="m 48.503089,256.58858 c -10.58874,-2.23899 -16.017949,-11.73896 -13.609358,-23.81352 2.220374,-11.13101 12.11749,-27.6127 28.016014,-46.65514 13.57853,-16.26368 21.77932,-25.46171 33.30417,-37.3541 2.99818,-3.0938 3.58086,-3.9514 4.259735,-6.26961 1.80951,-6.17905 6.89738,-27.32883 8.41954,-34.99927 1.35869,-6.84664 1.40316,-6.97056 2.46945,-6.88118 0.70673,0.0592 0.70673,0.0592 0.68339,1.63608 -0.0463,3.12814 -7.1057,31.49798 -9.61176,38.62709 -1.01614,2.89068 -1.19773,3.02504 5.203,-3.84966 1.57039,-1.68668 5.39452,-5.7224 8.49804,-8.96827 26.40278,-27.61369 40.99111,-48.23094 43.23601,-61.104131 5.00968,-28.72765 -57.97649,-23.045122 -83.275135,7.512972 -0.81219,0.981039 -2.40803,2.915611 -3.54631,4.299048 -1.13828,1.383434 -2.67517,3.241684 -3.41531,4.129434 -5.76452,6.9142 -10.660108,17.322427 -11.115942,23.632957 -0.268741,3.72041 3.962435,3.46119 12.324512,-0.75506 3.30567,-1.66675 5.23736,-2.43195 5.49327,-2.17604 1.03617,1.03617 -6.16033,5.67372 -11.07326,7.1358 -7.906514,2.35297 -10.949185,-0.8454 -8.272518,-8.69584 11.127928,-32.637297 44.922453,-56.534899 78.640003,-55.609819 21.69272,0.595165 30.04341,9.153057 25.0305,25.651582 -1.96318,6.461224 -9.61394,18.7896 -18.72291,30.169937 -7.60311,9.499 -14.52146,17.07002 -33.77794,36.96455 -7.63489,7.88787 -6.7057,6.53853 -9.156845,13.29717 -6.88737,18.99078 -9.84066,25.49976 -10.7765,23.75113 -0.18405,-0.34391 -0.14989,-0.39421 0.26764,-0.39421 0.54624,0 0.47895,0.13205 1.60722,-3.15368 0.46532,-1.3551 1.64447,-4.50384 2.62034,-6.99722 2.19448,-5.60698 5.95136,-15.92478 5.95136,-16.34467 0,-1.49313 -4.88373,3.8638 -27.32197,29.96931 -31.839609,37.04343 -41.053225,59.58053 -29.247103,71.54033 2.868904,2.90625 9.911549,5.3672 11.794194,4.12132 1.430428,-0.94659 2.416515,-0.0403 1.33077,1.22308 -0.573216,0.66702 -3.871638,0.85752 -6.226297,0.35963 z m 58.638661,-90.8938 c -0.21681,-0.0427 -0.88204,-0.17302 -1.47828,-0.2896 -5.22222,-1.02107 -7.854305,-4.53468 -6.673945,-8.90915 4.322095,-16.01793 30.825935,-35.48458 43.284895,-31.79208 3.02431,0.89633 3.26096,5.31713 0.34976,6.53351 -1.28319,0.53615 -1.99048,0.25099 -1.39374,-0.56192 1.25342,-1.70748 1.30892,-1.81826 1.25168,-2.49815 -0.18357,-2.18036 -5.58626,-2.34849 -11.56613,-0.35994 -17.21052,5.7232 -35.293255,27.27499 -28.47027,33.93208 3.53225,3.44635 10.16737,3.36713 30.61531,-0.36556 15.95103,-2.9118 16.25316,-2.95663 27.89033,-4.13826 8.0943,-0.82189 9.66548,-1.0073 11.95811,-1.41113 2.31834,-0.40836 2.71487,-0.29218 1.3708,0.40162 -1.23089,0.63538 -4.33425,1.3784 -7.0763,1.69424 -4.6542,0.5361 -7.12156,0.84297 -11.18023,1.39049 -2.38497,0.32173 -5.35632,0.72203 -6.60301,0.88955 -3.58062,0.48113 -7.62993,1.17858 -15.37417,2.64803 -10.30288,1.95494 -13.60734,2.52146 -16.06404,2.75404 -2.03373,0.19253 -9.97475,0.25276 -10.84077,0.0822 z"
      id="path654" />
  </g>

  <metadata id="metadata282">
    <rdf:RDF>
      <cc:Work rdf:about="">
        <dc:title>Divyansh Choudhary - Initials as logo</dc:title>
        <dc:date>2024-03-21</dc:date>
        <dc:creator>
          <cc:Agent>
            <dc:title>Divyansh Choudhary</dc:title>
          </cc:Agent>
        </dc:creator>
        <dc:rights>
          <cc:Agent>
            <dc:title>DC</dc:title>
          </cc:Agent>
        </dc:rights>
        <dc:description>Initials of DC as logo with around 10mm equivalent as margins on all sides</dc:description>
      </cc:Work>
    </rdf:RDF>
  </metadata>
</svg>